<?xml version="1.0" standalone="no"?>
<!DOCTYPE svg PUBLIC "-//W3C//DTD SVG 20010904//EN"
 "http://www.w3.org/TR/2001/REC-SVG-20010904/DTD/svg10.dtd">
<svg version="1.0" xmlns="http://www.w3.org/2000/svg"
 width="1024.000000pt" height="1024.000000pt" viewBox="0 0 1024.000000 1024.000000"
 preserveAspectRatio="xMidYMid meet">

<g transform="translate(0.000000,1024.000000) scale(0.100000,-0.100000)"
fill="#000000" stroke="none">
<path d="M4785 8654 c-359 -36 -603 -87 -910 -188 -656 -218 -1191 -569 -1653
-1086 -183 -205 -385 -500 -514 -751 -60 -117 -154 -341 -213 -508 -67 -191
-137 -527 -171 -826 -22 -194 -15 -667 14 -870 102 -712 366 -1319 806 -1852
119 -143 396 -419 524 -521 197 -157 417 -295 672 -423 578 -288 1184 -424
1800 -406 639 19 1259 193 1796 503 415 239 748 527 1059 914 268 335 452 669
587 1070 291 867 270 1777 -60 2605 -283 709 -776 1310 -1418 1728 -507 330
-1036 522 -1644 597 -86 11 -601 21 -675 14z m675 -433 c170 -25 261 -43 425
-86 855 -223 1620 -804 2052 -1562 227 -396 372 -882 407 -1363 7 -90 18 -120
-123 320 -56 173 -123 375 -148 448 l-46 133 -68 -212 c-38 -117 -69 -219 -69
-228 -1 -14 -2 -14 -9 -1 -12 21 -134 387 -290 865 -71 220 -136 418 -144 440
l-14 40 -87 -270 c-156 -482 -202 -626 -286 -883 l-83 -252 -174 517 c-95 284
-175 518 -176 519 -1 1 -74 -210 -161 -469 -88 -260 -179 -529 -203 -599 -24
-70 -43 -136 -43 -148 0 -11 -4 -20 -10 -20 -5 0 -10 7 -10 17 0 9 -15 64 -34
122 -18 58 -57 186 -87 283 -29 98 -57 174 -60 170 -4 -4 -40 -108 -79 -232
-39 -124 -91 -286 -115 -360 -24 -74 -75 -236 -115 -360 -39 -124 -75 -236
-80 -250 -21 -58 -90 -293 -87 -296 2 -2 70 14 153 36 451 118 964 201 1424
231 210 14 639 6 860 -16 145 -14 372 -44 378 -49 5 -6 -30 -289 -49 -391 -41
-219 -106 -450 -175 -622 -51 -127 -126 -283 -135 -283 -9 0 -287 58 -524 109
-269 58 -748 176 -1100 271 -651 177 -1103 347 -1428 539 -331 196 -692 573
-851 889 l-37 73 56 -45 c151 -124 373 -222 577 -257 104 -18 150 -20 298 -16
172 5 295 21 284 38 -3 5 -12 9 -20 9 -38 0 -267 105 -389 178 -193 115 -405
297 -538 462 -108 134 -290 431 -274 447 3 2 27 -11 54 -30 26 -19 85 -53 130
-76 190 -95 351 -127 592 -117 85 4 159 10 164 13 5 3 -26 20 -69 38 -117 47
-190 86 -305 164 -137 92 -248 189 -352 310 -97 114 -140 174 -222 316 -50 88
-129 255 -120 255 2 0 25 -13 52 -29 87 -54 164 -73 308 -78 108 -3 127 -2
113 9 -9 7 -57 41 -106 76 -194 136 -363 350 -510 646 l-64 130 -32 -75 c-137
-314 -390 -624 -632 -776 -16 -10 -2 -12 74 -12 116 -1 205 19 305 67 91 45
90 49 18 -103 -129 -271 -328 -519 -556 -692 -131 -99 -210 -144 -400 -229
l-40 -18 60 -7 c318 -37 684 53 852 210 12 12 25 21 28 21 9 0 -83 -177 -137
-264 -134 -213 -321 -415 -528 -567 -124 -91 -361 -217 -497 -263 l-68 -23 51
-11 c221 -48 489 -32 720 44 140 45 313 143 397 222 20 20 37 33 37 29 0 -23
-82 -175 -150 -275 -154 -232 -374 -452 -591 -593 -104 -68 -274 -158 -394
-210 -120 -52 -392 -146 -399 -138 -13 13 -78 359 -92 489 -20 196 -15 662 10
840 21 147 78 402 123 550 173 571 545 1116 1050 1538 328 274 815 525 1249
642 159 43 451 95 611 110 154 14 517 4 673 -19z m-1100 -4841 c960 -62 1843
-208 3053 -502 l208 -50 -112 -117 c-61 -64 -136 -139 -165 -167 l-54 -51
-312 63 c-813 162 -1452 291 -1758 353 -488 100 -1291 247 -1635 301 -209 32
-891 148 -878 149 6 1 47 6 90 12 196 28 1192 33 1563 9z m-1947 -260 c717
-91 1797 -331 3108 -690 663 -182 1199 -343 1199 -361 0 -11 -270 -135 -442
-204 l-167 -66 -85 30 c-538 190 -1867 532 -2591 667 -242 45 -608 103 -704
111 l-74 6 -154 186 c-155 186 -263 324 -263 335 0 8 -5 8 173 -14z"/>
</g>
</svg>
